<?xml version="1.0" standalone="no"?>
<!DOCTYPE svg PUBLIC "-//W3C//DTD SVG 1.1//EN" "http://www.w3.org/Graphics/SVG/1.1/DTD/svg11.dtd" >
<svg xmlns="http://www.w3.org/2000/svg">
<metadata></metadata>
<defs>
<font id="vegurlight" horiz-adv-x="1050" >
<font-face units-per-em="2048" ascent="1577" descent="-471" />
<missing-glyph horiz-adv-x="487" />
<glyph horiz-adv-x="2048" />
<glyph horiz-adv-x="2048" />
<glyph unicode="&#xd;" horiz-adv-x="2048" />
<glyph unicode=" "  horiz-adv-x="487" />
<glyph unicode="&#x09;" horiz-adv-x="487" />
<glyph unicode="&#xa0;" horiz-adv-x="487" />
<glyph unicode="!" horiz-adv-x="483" d="M176 45q0 28 19 47t47 19t46.5 -19t18.5 -47t-18.5 -46.5t-46.5 -18.5t-47 18.5t-19 46.5zM193 1389h98l-12 -1104h-74z" />
<glyph unicode="&#x22;" horiz-adv-x="516" d="M131 1401q-1 23 8 32t33 9h51l-20 -416h-64zM309 1401q-1 23 8 32t33 9h51l-20 -416h-64z" />
<glyph unicode="#" horiz-adv-x="1064" d="M111 451v61h208l54 324h-217v61h227l61 379h66l-61 -379h241l62 379h65l-61 -379h198v-61h-209l-53 -324h217v-61h-227l-61 -379h-66l61 379h-241l-62 -379h-65l61 379h-198zM385 512h242l53 324h-242z" />
<glyph unicode="$" d="M190 119l13 76q140 -58 282 -58q129 0 205 59.5t76 170.5q0 104 -58.5 165t-224.5 136q-139 63 -204.5 136t-65.5 181q0 124 76 198.5t196 90.5v199h66v-195q144 0 240 -49l-11 -72q-110 47 -229 47q-113 0 -181.5 -52.5t-68.5 -150.5q0 -56 12.5 -95t48 -72t80 -58.5 t125.5 -62.5q152 -70 219.5 -144.5t67.5 -177.5q0 -130 -83 -217t-222 -106v-191h-66v186q-154 0 -293 56z" />
<glyph unicode="%" horiz-adv-x="1691" d="M145 1020q0 150 77 249t206 99t206 -99t77 -249t-77 -249t-206 -99t-206 99t-77 249zM215 1020q0 -132 59.5 -209.5t153.5 -77.5t153.5 77.5t59.5 209.5t-59.5 209.5t-153.5 77.5t-153.5 -77.5t-59.5 -209.5zM336 -41l942 1450h78l-942 -1450h-78zM981 328q0 150 77 249 t206 99t205.5 -99t76.5 -249t-76.5 -249t-205.5 -99t-206 99t-77 249zM1051 328q0 -132 59.5 -209.5t153.5 -77.5t153.5 77.5t59.5 209.5t-59.5 209t-153.5 77t-153.5 -77t-59.5 -209z" />
<glyph unicode="&#x26;" horiz-adv-x="1314" d="M115 340q0 60 16.5 113t44.5 95.5t75 86t95 78t119 78.5v4q-61 72 -93 114.5t-59.5 104t-27.5 119.5q0 126 90 201t200 75q124 0 198.5 -77.5t74.5 -190.5q0 -58 -18 -107t-57.5 -93t-82 -78t-110.5 -81v-4l444 -520h4q122 155 131 430h82q-15 -308 -168 -485l176 -203 h-110l-121 143h-4q-181 -163 -461 -163q-85 0 -163 24t-139.5 68.5t-98.5 114t-37 153.5zM205 352q0 -129 102.5 -214t259.5 -85q241 0 400 144v4l-451 536h-4q-82 -52 -131.5 -89t-93.5 -84t-63 -98t-19 -114zM375 1145q0 -81 32.5 -142t122.5 -167h5q61 41 96 68 t67.5 63.5t46 76.5t13.5 91q0 89 -53 144.5t-134 55.5q-80 0 -138 -51.5t-58 -138.5z" />
<glyph unicode="'" horiz-adv-x="391" d="M184 1401q-1 23 8 32t33 9h51l-20 -416h-63z" />
<glyph unicode="(" horiz-adv-x="602" d="M182 629q0 236 71 456.5t173 364.5h61q-106 -166 -170.5 -376t-64.5 -445t64.5 -445.5t170.5 -376.5h-61q-102 144 -173 365t-71 457z" />
<glyph unicode=")" horiz-adv-x="602" d="M115 -193q106 166 170.5 376.5t64.5 445.5t-64.5 445t-170.5 376h61q102 -144 173 -364.5t71 -456.5t-71 -457t-173 -365h-61z" />
<glyph unicode="*" horiz-adv-x="909" d="M135 1120l25 74l268 -107h4l-16 293h78l-17 -293h4l269 107l24 -74l-282 -73v-5l184 -225l-64 -45l-155 246h-4l-156 -246l-64 45l185 225v5z" />
<glyph unicode="+" horiz-adv-x="1249" d="M135 494v61h457v494h65v-494h457v-61h-457v-494h-65v494h-457z" />
<glyph unicode="," horiz-adv-x="393" d="M23 -338q73 205 122 395q8 33 45 33h68q-77 -232 -154 -412z" />
<glyph unicode="-" horiz-adv-x="735" d="M160 494v61h415v-61h-415z" />
<glyph unicode="." horiz-adv-x="401" d="M135 45q0 28 19 47t47 19t46.5 -19t18.5 -47t-18.5 -46.5t-46.5 -18.5t-47 18.5t-19 46.5z" />
<glyph unicode="/" horiz-adv-x="692" d="M-10 -76l641 1510h71l-641 -1510h-71z" />
<glyph unicode="0" d="M90 674q0 323 120 508.5t316 185.5q195 0 315 -185.5t120 -508.5t-120 -508.5t-315 -185.5q-196 0 -316 185.5t-120 508.5zM180 674q0 -289 99 -455t247 -166t246 165.5t98 455.5q0 289 -98 454.5t-246 165.5q-149 0 -247.5 -165.5t-98.5 -454.5z" />
<glyph unicode="1" d="M252 1196l342 152h41v-1348h-82v1239l-291 -115z" />
<glyph unicode="2" d="M135 0v61l277 349q235 298 302.5 410t67.5 206q0 121 -75 194.5t-215 73.5q-67 0 -144 -20t-139 -57l-10 73q137 78 313 78q164 0 262 -96t98 -238q0 -50 -16 -102t-41 -101.5t-87.5 -137t-121 -162.5t-176.5 -224l-184 -231v-4h645v-72h-756z" />
<glyph unicode="3" d="M133 45l10 74q147 -66 316 -66q148 0 252 82t104 217q0 134 -98 213t-291 86v76q137 9 246.5 101.5t109.5 220.5q0 118 -74 181.5t-216 63.5q-138 0 -275 -67l-10 73q139 68 305 68q161 0 260.5 -82.5t99.5 -210.5q0 -127 -91.5 -223.5t-221.5 -136.5v-4 q146 -26 246 -117t100 -225q0 -124 -64.5 -213.5t-169 -132.5t-235.5 -43q-159 0 -303 65z" />
<glyph unicode="4" d="M84 358v66l649 924h88v-918h178v-72h-178v-358h-82v358h-655zM180 430h559v414q0 240 2 387h-4l-557 -799v-2z" />
<glyph unicode="5" d="M145 39l11 74q143 -60 278 -60q159 0 272 93.5t113 244.5q0 162 -89.5 247t-244.5 85q-122 0 -215 -49l-73 2l20 672h625v-72h-551l-19 -526h7q99 47 225 47q178 0 291.5 -105.5t113.5 -273.5q0 -196 -139 -317t-344 -121q-160 0 -281 59z" />
<glyph unicode="6" d="M119 528q0 164 53.5 315.5t142.5 262t206.5 180.5t242.5 82l10 -74q-154 -22 -280.5 -120.5t-201.5 -248.5t-85 -323h4q40 102 137.5 158.5t210.5 56.5q164 0 270.5 -109t106.5 -276q0 -199 -117 -325.5t-289 -126.5q-179 0 -295 147t-116 401zM217 451q0 -162 93.5 -280 t226.5 -118q127 0 218 99t91 266q0 143 -86 234t-225 91q-137 0 -227.5 -83.5t-90.5 -208.5z" />
<glyph unicode="7" d="M147 1276v72h779v-74l-533 -1274h-84l535 1272v4h-697z" />
<glyph unicode="8" d="M119 326q0 139 82.5 229.5t234.5 157.5v4q-260 121 -260 334q0 134 106.5 225.5t260.5 91.5q143 0 248.5 -88t105.5 -215q0 -117 -77.5 -202t-198.5 -138v-4q157 -74 233 -158t76 -211q0 -89 -35.5 -162t-94.5 -117.5t-130 -68.5t-146 -24q-174 0 -289.5 93t-115.5 253z M207 346q0 -130 90.5 -211.5t226.5 -81.5q130 0 224 77t94 206q0 125 -83.5 208.5t-240.5 141.5q-150 -59 -230.5 -141t-80.5 -199zM264 1055q0 -114 71 -185.5t197 -117.5q129 48 203 118t74 177q0 108 -74.5 178.5t-195.5 70.5t-198 -69t-77 -172z" />
<glyph unicode="9" d="M115 915q0 199 116.5 326t288.5 127q178 0 295 -147.5t117 -401.5q0 -164 -53.5 -315.5t-142.5 -261.5t-206.5 -180t-242.5 -82l-11 73q154 22 280.5 120.5t202 248.5t85.5 323h-4q-40 -102 -137.5 -158.5t-210.5 -56.5q-165 0 -271 108.5t-106 276.5zM205 930 q0 -144 85.5 -235t225.5 -91q138 0 228 83.5t90 209.5q0 161 -94.5 279t-225.5 118q-127 0 -218 -98.5t-91 -265.5z" />
<glyph unicode=":" horiz-adv-x="401" d="M135 45q0 28 19 47t47 19t46.5 -19t18.5 -47t-18.5 -46.5t-46.5 -18.5t-47 18.5t-19 46.5zM135 946q0 28 19 47t47 19t46.5 -19t18.5 -47t-18.5 -46.5t-46.5 -18.5t-47 18.5t-19 46.5z" />
<glyph unicode=";" horiz-adv-x="413" d="M23 -338q73 205 122 395q8 33 45 33h68q-77 -232 -154 -412zM147 946q0 28 19 47t47 19t47 -19t19 -47t-19 -46.5t-47 -18.5t-47 18.5t-19 46.5z" />
<glyph unicode="&#x3c;" horiz-adv-x="1015" d="M104 504v74l762 413v-73l-702 -375v-4l702 -375v-74z" />
<glyph unicode="=" horiz-adv-x="1290" d="M182 281v61h926v-61h-926zM182 707v61h926v-61h-926z" />
<glyph unicode="&#x3e;" horiz-adv-x="1015" d="M150 90v74l702 375v4l-702 375v73l761 -413v-74z" />
<glyph unicode="?" horiz-adv-x="786" d="M94 1364q117 57 260 57q141 0 229.5 -73.5t88.5 -196.5q0 -86 -44.5 -173t-152.5 -233q-75 -103 -103 -190t-28 -195v-75h-82v57q0 140 42 247t132 230q76 106 111 177t35 145q0 89 -64 148t-184 59q-125 0 -230 -58zM238 45q0 -28 18.5 -46.5t46.5 -18.5t47 18.5 t19 46.5t-19 47t-47 19t-46.5 -19t-18.5 -47z" />
<glyph unicode="@" horiz-adv-x="1798" d="M154 365q0 185 67.5 341t184.5 261t275 163t337 58q121 0 231 -51.5t187 -134t122.5 -188t45.5 -212.5q0 -221 -108 -360.5t-269 -139.5q-66 0 -113 39.5t-61 124.5h-4q-94 -178 -279 -178q-89 0 -160 76.5t-71 195.5q0 234 136.5 378.5t354.5 144.5q86 0 170 -31 l-65 -438q-39 -250 114 -250q119 0 201 110.5t82 292.5q0 153 -66.5 279.5t-194 203t-290.5 76.5q-210 0 -384 -95.5t-274 -261.5t-100 -366q0 -174 75.5 -313t203 -215t282.5 -76q231 0 416 111l8 -57q-190 -115 -448 -115q-121 0 -232.5 49.5t-193.5 133t-131 200 t-49 244.5zM608 381q0 -108 55.5 -169.5t131.5 -61.5q117 0 187.5 79t94.5 252l47 326q-58 14 -120 14q-177 0 -286.5 -124.5t-109.5 -315.5z" />
<glyph unicode="A" horiz-adv-x="1177" d="M53 0l488 1389h84l487 -1389h-86l-168 489h-555l-168 -489h-82zM328 561h508l-250 727h-6z" />
<glyph unicode="B" horiz-adv-x="1054" d="M176 12v1366q164 21 285 21q218 0 335 -91t117 -241q0 -120 -80.5 -210.5t-191.5 -123.5v-4q142 -33 225.5 -121.5t83.5 -214.5q0 -192 -143 -297.5t-375 -105.5q-121 0 -256 22zM258 80q112 -17 195 -17q189 0 298 86t109 232q0 133 -101.5 215t-285.5 82h-215v-598z M258 745h221q62 0 122 19.5t110.5 56t81 96.5t30.5 134q0 130 -96.5 202t-277.5 72q-108 0 -191 -14v-566z" />
<glyph unicode="C" horiz-adv-x="1187" d="M90 690q0 158 54 294t145 228t212 144.5t255 52.5q241 0 358 -63l-10 -74q-165 63 -342 63q-116 0 -222 -46t-186 -127.5t-127 -203t-47 -264.5q0 -194 76 -341.5t203 -223.5t284 -76q177 0 340 66l11 -76q-147 -63 -371 -63q-126 0 -240 47.5t-202 135.5t-139.5 224.5 t-51.5 302.5z" />
<glyph unicode="D" horiz-adv-x="1357" d="M176 4v1372q160 23 334 23q352 0 555 -180t203 -484q0 -132 -40.5 -250t-113 -207.5t-169.5 -154.5t-214 -99t-242 -34q-135 0 -313 14zM258 72q162 -9 252 -9q131 0 252 47.5t213.5 130.5t147.5 207t55 267q0 276 -177 443t-489 167q-138 0 -254 -14v-1239z" />
<glyph unicode="E" horiz-adv-x="991" d="M176 0v1389h682v-72h-600v-563h530v-72h-530v-610h619v-72h-701z" />
<glyph unicode="F" horiz-adv-x="911" d="M176 0v1389h682v-72h-600v-584h530v-71h-530v-662h-82z" />
<glyph unicode="G" horiz-adv-x="1277" d="M90 684q0 168 56 307t150 229t216.5 139.5t257.5 49.5q202 0 338 -66l-10 -79q-66 31 -157 51t-177 20q-119 0 -225 -44.5t-186 -125t-126.5 -202.5t-46.5 -269t42.5 -266.5t117.5 -199t178.5 -122.5t224.5 -43q185 0 324 50v473h-346v71h428v-598q-179 -69 -426 -69 q-130 0 -244 45t-201 130t-137.5 218.5t-50.5 300.5z" />
<glyph unicode="H" horiz-adv-x="1357" d="M176 0v1389h82v-637h842v637h82v-1389h-82v680h-842v-680h-82z" />
<glyph unicode="I" horiz-adv-x="434" d="M176 0v1389h82v-1389h-82z" />
<glyph unicode="J" horiz-adv-x="749" d="M12 8l11 74q77 -29 178 -29q139 0 220 93t81 290v953h82v-945q0 -234 -108 -349t-290 -115q-107 0 -174 28z" />
<glyph unicode="K" horiz-adv-x="1079" d="M176 0v1389h82v-789h8l686 789h103l-594 -666l635 -723h-113l-571 664h-6l-148 -166v-498h-82z" />
<glyph unicode="L" horiz-adv-x="954" d="M176 0v1389h82v-1317h639v-72h-721z" />
<glyph unicode="M" horiz-adv-x="1646" d="M170 0l49 1389h103l491 -1254h6l502 1254h100l49 -1389h-81l-35 1278h-6l-496 -1237h-78l-487 1237h-6l-35 -1278h-76z" />
<glyph unicode="N" horiz-adv-x="1384" d="M170 0v1389h113l591 -897q151 -227 265 -412h6q-6 166 -6 412v897h75v-1389h-112l-592 897q-164 246 -264 410h-6q6 -164 6 -410v-897h-76z" />
<glyph unicode="O" horiz-adv-x="1437" d="M90 694q0 139 46 269t126.5 228.5t200 158t256.5 59.5t256.5 -59.5t200 -158t126.5 -228.5t46 -269t-46 -268.5t-126.5 -228.5t-200 -158t-256.5 -59t-256.5 59t-200 158t-126.5 228.5t-46 268.5zM180 694q0 -126 38.5 -242t107.5 -204.5t171 -141.5t222 -53 q159 0 283.5 90.5t189.5 236t65 314.5t-65 314.5t-189.5 236t-283.5 90.5q-120 0 -222 -53t-171 -141.5t-107.5 -204.5t-38.5 -242z" />
<glyph unicode="P" horiz-adv-x="1011" d="M176 0v1372q138 27 260 27q234 0 366 -98.5t132 -272.5q0 -112 -43.5 -199.5t-118.5 -141t-169.5 -80.5t-203.5 -27q-59 0 -141 10v-590h-82zM258 664q79 -11 158 -11q188 0 308 94.5t120 260.5q0 160 -110.5 238.5t-303.5 78.5q-84 0 -172 -12v-649z" />
<glyph unicode="Q" horiz-adv-x="1437" d="M90 694q0 139 46 269t126.5 228.5t200 158t256.5 59.5t256.5 -59.5t200 -158t126.5 -228.5t46 -269q0 -228 -116.5 -416.5t-309.5 -261.5l75 -290l-79 -21l-70 289q-57 -14 -129 -14q-137 0 -256.5 59t-200 158t-126.5 228.5t-46 268.5zM180 694q0 -126 38.5 -242 t107.5 -204.5t171 -141.5t222 -53q159 0 283.5 90.5t189.5 236t65 314.5t-65 314.5t-189.5 236t-283.5 90.5q-120 0 -222 -53t-171 -141.5t-107.5 -204.5t-38.5 -242z" />
<glyph unicode="R" horiz-adv-x="1044" d="M176 0v1366q143 31 295 31q216 0 345.5 -94.5t129.5 -258.5q0 -140 -88 -237t-209 -131v-4q93 -26 149 -95t79 -184q40 -205 100 -393h-96q-56 202 -90 381q-24 118 -94.5 184t-188.5 66h-250v-631h-82zM258 702h236q160 0 261 86t101 236q0 147 -102 223t-289 76 q-105 0 -207 -18v-603z" />
<glyph unicode="S" horiz-adv-x="1003" d="M104 31l11 75q142 -53 309 -53q150 0 253 78.5t103 210.5q0 65 -17.5 113.5t-59.5 89t-96 72t-142 71.5q-146 66 -225.5 154t-79.5 217q0 85 33.5 153.5t89.5 110.5t126 64t146 22q171 0 264 -49l-10 -74q-96 49 -254 49q-131 0 -219 -70t-88 -188q0 -67 18 -116.5 t60 -89.5t91.5 -69.5t131.5 -66.5q163 -75 241 -157.5t78 -210.5q0 -170 -124 -278.5t-328 -108.5q-185 0 -312 51z" />
<glyph unicode="T" horiz-adv-x="970" d="M31 1317v72h909v-72h-414v-1317h-82v1317h-413z" />
<glyph unicode="U" horiz-adv-x="1204" d="M160 438v951h82v-930q0 -192 101.5 -299t264.5 -107q170 0 267.5 109.5t97.5 296.5v930h78v-920q0 -229 -124.5 -359t-322.5 -130q-194 0 -319 128.5t-125 329.5z" />
<glyph unicode="V" horiz-adv-x="1114" d="M33 1389h86l440 -1287h6l445 1287h82l-488 -1389h-84z" />
<glyph unicode="W" horiz-adv-x="1775" d="M41 1389h86l375 -1280h6l348 1280h82l344 -1280h6l379 1280h78l-424 -1389h-82l-342 1274h-6l-346 -1274h-84z" />
<glyph unicode="X" horiz-adv-x="995" d="M29 0l432 709l-418 680h96l363 -609h4l356 609h90l-409 -676l436 -713h-96l-381 643h-4l-379 -643h-90z" />
<glyph unicode="Y" horiz-adv-x="1042" d="M33 1389h98l397 -711h4l398 711h90l-451 -781v-608h-82v600z" />
<glyph unicode="Z" horiz-adv-x="1112" d="M90 0v72l803 1241v4h-739v72h829v-74l-801 -1239v-4h836v-72h-928z" />
<glyph unicode="[" horiz-adv-x="608" d="M209 -178v1612h301v-62h-236v-1489h236v-61h-301z" />
<glyph unicode="\" horiz-adv-x="692" d="M-10 1434h71l641 -1510h-71z" />
<glyph unicode="]" horiz-adv-x="608" d="M98 -117h236v1489h-236v62h301v-1612h-301v61z" />
<glyph unicode="^" horiz-adv-x="1093" d="M135 541l375 798h74l374 -798h-73l-334 733h-6l-336 -733h-74z" />
<glyph unicode="_" horiz-adv-x="1032" d="M53 -113h926v-61h-926v61z" />
<glyph unicode="`" horiz-adv-x="505" d="M88 1442h68q26 0 39 -23q54 -108 135 -239l-78 -4q-114 172 -164 266z" />
<glyph unicode="a" horiz-adv-x="950" d="M96 289q0 159 120 247.5t306 88.5q89 0 189 -17v45q0 146 -62.5 214.5t-202.5 68.5q-114 0 -233 -51l-8 69q132 54 264 54q156 0 240 -86.5t84 -241.5v-680h-76l-6 186h-4q-42 -97 -124.5 -151.5t-181.5 -54.5q-127 0 -216 87t-89 222zM186 299q0 -116 67.5 -184 t172.5 -68q124 0 204.5 101.5t80.5 261.5v131q-69 16 -170 16q-161 0 -258 -65t-97 -193z" />
<glyph unicode="b" horiz-adv-x="1132" d="M176 0v1475h82v-682h4q69 110 152 160.5t192 50.5q196 0 313 -134.5t117 -359.5q0 -235 -123.5 -382.5t-320.5 -147.5q-115 0 -198 55.5t-132 154.5h-4l-6 -190h-76zM258 395q0 -151 97.5 -247.5t238.5 -96.5q152 0 252 119.5t100 323.5q0 200 -93.5 319t-262.5 119 q-145 0 -238.5 -101.5t-93.5 -242.5v-193z" />
<glyph unicode="c" horiz-adv-x="935" d="M96 483q0 247 138 384t356 137q86 0 160 -17t112 -43l-8 -70q-119 58 -260 58q-181 0 -294.5 -110.5t-113.5 -315.5q0 -212 109.5 -333.5t292.5 -121.5q108 0 256 55l8 -69q-126 -57 -293 -57q-129 0 -234 61t-167 176.5t-62 265.5z" />
<glyph unicode="d" horiz-adv-x="1132" d="M96 473q0 235 124 383t321 148q224 0 329 -211h4v682h82v-1475h-75l-7 190h-4q-68 -109 -152 -159.5t-192 -50.5q-197 0 -313.5 134t-116.5 359zM186 489q0 -200 94 -319t263 -119q144 0 237.5 101t93.5 243v193q0 151 -97.5 247.5t-237.5 96.5q-154 0 -253.5 -119.5 t-99.5 -323.5z" />
<glyph unicode="e" horiz-adv-x="1005" d="M96 485q0 105 33.5 200.5t92 166.5t144.5 113.5t185 42.5q111 0 192 -60t119.5 -156t38.5 -214q0 -46 -6 -89h-713q0 -208 102.5 -323t282.5 -115q132 0 240 51l8 -69q-117 -53 -278 -53q-91 0 -169.5 31t-140 91.5t-96.5 159t-35 223.5zM186 557h631q0 174 -72 276.5 t-213 102.5q-147 0 -242.5 -111t-103.5 -268z" />
<glyph unicode="f" horiz-adv-x="641" d="M74 911v72h162v102q0 198 94.5 304t238.5 106q73 0 129 -29l-8 -65q-55 22 -123 22q-114 0 -182 -79t-68 -234v-127h263v-72h-263v-911h-81v911h-162z" />
<glyph unicode="g" horiz-adv-x="1128" d="M96 481q0 234 123 378.5t318 144.5q224 0 329 -211h4l7 190h75v-848q0 -152 -35.5 -262t-100.5 -173t-148.5 -92.5t-188.5 -29.5q-180 0 -301 72l8 74q128 -74 297 -74q186 0 286.5 108.5t100.5 329.5v115h-4q-68 -109 -152 -160t-192 -51q-197 0 -311.5 132t-114.5 357z M186 498q0 -199 94 -317t259 -118q144 0 237.5 101.5t93.5 243.5v180q0 151 -97.5 247.5t-237.5 96.5q-152 0 -250.5 -119t-98.5 -315z" />
<glyph unicode="h" horiz-adv-x="1073" d="M176 0v1475h82v-689h4q57 106 148.5 164t201.5 58q152 0 227.5 -100t75.5 -263v-645h-81v614q0 158 -57.5 239t-192.5 81q-138 0 -232 -103t-94 -249v-582h-82z" />
<glyph unicode="i" horiz-adv-x="434" d="M156 1243q0 26 17.5 44t43.5 18t44 -18t18 -44t-18 -43.5t-44 -17.5t-43.5 17.5t-17.5 43.5zM176 0v983h82v-983h-82z" />
<glyph unicode="j" horiz-adv-x="458" d="M-84 -348q70 13 119.5 38t88.5 72t58 123t19 183v915h82v-903q0 -160 -39.5 -263t-116.5 -158.5t-203 -80.5zM180 1243q0 26 18 44t44 18t43.5 -18t17.5 -44t-17.5 -43.5t-43.5 -17.5t-44 17.5t-18 43.5z" />
<glyph unicode="k" horiz-adv-x="935" d="M176 0v1475h82v-1043h6q43 50 171.5 188t235.5 250l107 113h107l-402 -403l455 -580h-104l-402 520h-6l-168 -176v-344h-82z" />
<glyph unicode="l" horiz-adv-x="434" d="M176 0v1475h82v-1475h-82z" />
<glyph unicode="m" horiz-adv-x="1640" d="M176 0v983h76l6 -201h4q112 222 326 222q107 0 176 -71t92 -183h6q112 254 338 254q141 0 212 -95.5t71 -267.5v-641h-82v610q0 161 -54.5 240.5t-177.5 79.5q-132 0 -215.5 -114t-83.5 -279v-537h-82v606q0 324 -231 324q-133 0 -216 -113t-83 -280v-537h-82z" />
<glyph unicode="n" horiz-adv-x="1073" d="M176 0v987h76l6 -201h4q57 106 148.5 164t201.5 58q152 0 227.5 -100t75.5 -263v-645h-81v614q0 158 -57.5 239t-192.5 81q-138 0 -232 -103t-94 -249v-582h-82z" />
<glyph unicode="o" horiz-adv-x="1089" d="M96 492q0 232 127 372t322 140q194 0 321 -140t127 -372t-127 -372t-321 -140q-195 0 -322 140t-127 372zM186 492q0 -200 96.5 -320.5t262.5 -120.5t262 120.5t96 320.5t-96 320t-262 120t-262.5 -120t-96.5 -320z" />
<glyph unicode="p" horiz-adv-x="1132" d="M176 -401v1384h76l6 -190h4q69 110 152 160.5t192 50.5q196 0 313 -134.5t117 -359.5q0 -235 -123.5 -382.5t-320.5 -147.5q-115 0 -198 55.5t-132 154.5h-4v-591h-82zM258 395q0 -151 97.5 -247.5t238.5 -96.5q152 0 252 119.5t100 323.5q0 200 -93.5 319t-262.5 119 q-145 0 -238.5 -101.5t-93.5 -242.5v-193z" />
<glyph unicode="q" horiz-adv-x="1132" d="M96 473q0 235 124 383t321 148q224 0 329 -211h4l7 190h75v-1384h-82v591h-4q-68 -109 -152 -159.5t-192 -50.5q-197 0 -313.5 134t-116.5 359zM186 489q0 -200 94 -319t263 -119q144 0 237.5 101t93.5 243v193q0 151 -97.5 247.5t-237.5 96.5q-154 0 -253.5 -119.5 t-99.5 -323.5z" />
<glyph unicode="r" horiz-adv-x="557" d="M176 0v987h76l6 -252h4q39 121 107 192.5t157 80.5l-4 -97q-56 -9 -102 -37q-81 -53 -121.5 -154.5t-40.5 -273.5v-446h-82z" />
<glyph unicode="s" horiz-adv-x="798" d="M102 33l9 71q120 -53 245 -53q107 0 172.5 50.5t65.5 138.5q0 74 -49 126t-172 103q-109 45 -166 111t-57 163q0 123 84 192t208 69q119 0 201 -46l-8 -69q-97 43 -189 43q-87 0 -148.5 -44.5t-61.5 -125.5q0 -86 39 -135t135 -90q143 -61 206.5 -124.5t63.5 -152.5 q0 -132 -92.5 -206t-241.5 -74t-244 53z" />
<glyph unicode="t" horiz-adv-x="624" d="M47 911v72h146v207h81v-207h226v-72h-226v-678q0 -95 39 -138.5t103 -43.5q54 0 112 21l9 -66q-59 -26 -142 -26q-92 0 -147 56t-55 171v704h-146z" />
<glyph unicode="u" horiz-adv-x="1073" d="M158 342v641h82v-610q0 -158 57 -239t192 -81q137 0 231.5 103.5t94.5 249.5v577h82v-983h-76l-6 201h-4q-58 -107 -149.5 -164t-200.5 -57q-78 0 -137.5 27.5t-95 77t-53 114t-17.5 143.5z" />
<glyph unicode="v" horiz-adv-x="944" d="M39 983h88l348 -893h4l350 893h82l-395 -983h-84z" />
<glyph unicode="w" horiz-adv-x="1499" d="M47 983h90l295 -883h6l277 883h86l276 -883h6l293 883h82l-344 -983h-82l-274 874h-6l-277 -874h-86z" />
<glyph unicode="x" horiz-adv-x="905" d="M33 0l366 500v6l-346 477h103l290 -412h7l290 412h95l-342 -473v-6l370 -504h-102l-315 440h-7l-315 -440h-94z" />
<glyph unicode="y" horiz-adv-x="927" d="M39 983h88l350 -893h4l353 893h81l-399 -989q-79 -195 -175.5 -290t-242.5 -126l-8 74q116 26 196 98.5t138 216.5l12 31z" />
<glyph unicode="z" horiz-adv-x="849" d="M94 0v72l541 833v6h-494v72h586v-72l-541 -833v-6h572v-72h-664z" />
<glyph unicode="{" horiz-adv-x="673" d="M166 598v61q96 11 126.5 46t20.5 122l-32 291q-39 336 301 336v-61q-149 0 -200 -70t-36 -205l33 -289q10 -92 -15 -131t-98 -67v-4q72 -28 97.5 -67.5t15.5 -131.5l-33 -289q-15 -135 36 -204.5t200 -69.5v-62q-340 0 -301 336l32 291q10 87 -20.5 122t-126.5 46z" />
<glyph unicode="|" horiz-adv-x="487" d="M209 -512v2048h70v-2048h-70z" />
<glyph unicode="}" horiz-adv-x="673" d="M92 -135q149 0 200 69.5t36 204.5l-33 289q-10 92 15.5 131.5t97.5 67.5v4q-73 28 -98 67t-15 131l33 289q15 135 -36 205t-200 70v61q340 0 301 -336l-33 -291q-10 -87 21 -122t127 -46v-61q-96 -11 -127 -46t-21 -122l33 -291q39 -336 -301 -336v62z" />
<glyph unicode="~" horiz-adv-x="1224" d="M145 438q0 98 51 145.5t134 47.5q42 0 103.5 -16.5t189.5 -59.5q222 -76 286 -76q57 0 82 31t27 100h61q0 -98 -50.5 -145t-133.5 -47q-42 0 -103.5 16.5t-189.5 59.5q-226 75 -287 75q-57 0 -81.5 -30.5t-26.5 -100.5h-62z" />
<glyph unicode="&#xa5;" d="M119 1348h96l311 -600h6l314 600h88l-338 -594h291v-62h-318v-170h318v-61h-318v-461h-82v461h-317v61h317v170h-317v62h287z" />
<glyph unicode="&#xad;" horiz-adv-x="735" d="M160 494v61h415v-61h-415z" />
<glyph unicode="&#xc4;" horiz-adv-x="1177" d="M53 0l488 1389h84l487 -1389h-86l-168 489h-555l-168 -489h-82zM328 561h508l-250 727h-6zM383 1550q0 26 17.5 44t43.5 18t44 -18t18 -44t-18 -43.5t-44 -17.5t-43.5 17.5t-17.5 43.5zM670 1550q0 26 17.5 44t43.5 18t44 -18t18 -44t-18 -43.5t-44 -17.5t-43.5 17.5 t-17.5 43.5z" />
<glyph unicode="&#xcb;" horiz-adv-x="991" d="M176 0v1389h682v-72h-600v-563h530v-72h-530v-610h619v-72h-701zM334 1550q0 26 17.5 44t43.5 18t44 -18t18 -44t-18 -43.5t-44 -17.5t-43.5 17.5t-17.5 43.5zM621 1550q0 26 17.5 44t43.5 18t43.5 -18t17.5 -44t-17.5 -43.5t-43.5 -17.5t-43.5 17.5t-17.5 43.5z" />
<glyph unicode="&#xcf;" horiz-adv-x="434" d="M12 1550q0 26 18 44t44 18t43.5 -18t17.5 -44t-17.5 -43.5t-43.5 -17.5t-44 17.5t-18 43.5zM176 0v1389h82v-1389h-82zM299 1550q0 26 17.5 44t43.5 18t44 -18t18 -44t-18 -43.5t-44 -17.5t-43.5 17.5t-17.5 43.5z" />
<glyph unicode="&#xd6;" horiz-adv-x="1437" d="M90 694q0 139 46 269t126.5 228.5t200 158t256.5 59.5t256.5 -59.5t200 -158t126.5 -228.5t46 -269t-46 -268.5t-126.5 -228.5t-200 -158t-256.5 -59t-256.5 59t-200 158t-126.5 228.5t-46 268.5zM180 694q0 -126 38.5 -242t107.5 -204.5t171 -141.5t222 -53 q159 0 283.5 90.5t189.5 236t65 314.5t-65 314.5t-189.5 236t-283.5 90.5q-120 0 -222 -53t-171 -141.5t-107.5 -204.5t-38.5 -242zM514 1550q0 26 17.5 44t43.5 18t44 -18t18 -44t-18 -43.5t-44 -17.5t-43.5 17.5t-17.5 43.5zM801 1550q0 26 17.5 44t43.5 18t44 -18t18 -44 t-18 -43.5t-44 -17.5t-43.5 17.5t-17.5 43.5z" />
<glyph unicode="&#xdc;" horiz-adv-x="1204" d="M160 438v951h82v-930q0 -192 101.5 -299t264.5 -107q170 0 267.5 109.5t97.5 296.5v930h78v-920q0 -229 -124.5 -359t-322.5 -130q-194 0 -319 128.5t-125 329.5zM410 1550q0 26 17.5 44t43.5 18t43.5 -18t17.5 -44t-17.5 -43.5t-43.5 -17.5t-43.5 17.5t-17.5 43.5z M696 1550q0 26 18 44t44 18t43.5 -18t17.5 -44t-17.5 -43.5t-43.5 -17.5t-44 17.5t-18 43.5z" />
<glyph unicode="&#xe4;" horiz-adv-x="950" d="M96 289q0 159 120 247.5t306 88.5q89 0 189 -17v45q0 146 -62.5 214.5t-202.5 68.5q-114 0 -233 -51l-8 69q132 54 264 54q156 0 240 -86.5t84 -241.5v-680h-76l-6 186h-4q-42 -97 -124.5 -151.5t-181.5 -54.5q-127 0 -216 87t-89 222zM186 299q0 -116 67.5 -184 t172.5 -68q124 0 204.5 101.5t80.5 261.5v131q-69 16 -170 16q-161 0 -258 -65t-97 -193zM279 1243q0 26 17.5 44t43.5 18t43.5 -18t17.5 -44t-17.5 -43.5t-43.5 -17.5t-43.5 17.5t-17.5 43.5zM565 1243q0 26 18 44t44 18t43.5 -18t17.5 -44t-17.5 -43.5t-43.5 -17.5 t-44 17.5t-18 43.5z" />
<glyph unicode="&#xeb;" horiz-adv-x="1005" d="M96 485q0 105 33.5 200.5t92 166.5t144.5 113.5t185 42.5q111 0 192 -60t119.5 -156t38.5 -214q0 -46 -6 -89h-713q0 -208 102.5 -323t282.5 -115q132 0 240 51l8 -69q-117 -53 -278 -53q-91 0 -169.5 31t-140 91.5t-96.5 159t-35 223.5zM186 557h631q0 174 -72 276.5 t-213 102.5q-147 0 -242.5 -111t-103.5 -268zM315 1243q0 26 18 44t44 18t43.5 -18t17.5 -44t-17.5 -43.5t-43.5 -17.5t-44 17.5t-18 43.5zM602 1243q0 26 18 44t44 18t43.5 -18t17.5 -44t-17.5 -43.5t-43.5 -17.5t-44 17.5t-18 43.5z" />
<glyph unicode="&#xef;" horiz-adv-x="434" d="M12 1243q0 26 18 44t44 18t43.5 -18t17.5 -44t-17.5 -43.5t-43.5 -17.5t-44 17.5t-18 43.5zM176 0v983h82v-983h-82zM299 1243q0 26 17.5 44t43.5 18t44 -18t18 -44t-18 -43.5t-44 -17.5t-43.5 17.5t-17.5 43.5z" />
<glyph unicode="&#xf6;" horiz-adv-x="1089" d="M96 492q0 232 127 372t322 140q194 0 321 -140t127 -372t-127 -372t-321 -140q-195 0 -322 140t-127 372zM186 492q0 -200 96.5 -320.5t262.5 -120.5t262 120.5t96 320.5t-96 320t-262 120t-262.5 -120t-96.5 -320zM340 1243q0 26 17.5 44t43.5 18t44 -18t18 -44 t-18 -43.5t-44 -17.5t-43.5 17.5t-17.5 43.5zM627 1243q0 26 17.5 44t43.5 18t44 -18t18 -44t-18 -43.5t-44 -17.5t-43.5 17.5t-17.5 43.5z" />
<glyph unicode="&#xfc;" horiz-adv-x="1073" d="M158 342v641h82v-610q0 -158 57 -239t192 -81q137 0 231.5 103.5t94.5 249.5v577h82v-983h-76l-6 201h-4q-58 -107 -149.5 -164t-200.5 -57q-78 0 -137.5 27.5t-95 77t-53 114t-17.5 143.5zM338 1243q0 26 17.5 44t43.5 18t44 -18t18 -44t-18 -43.5t-44 -17.5t-43.5 17.5 t-17.5 43.5zM625 1243q0 26 17.5 44t43.5 18t44 -18t18 -44t-18 -43.5t-44 -17.5t-43.5 17.5t-17.5 43.5z" />
<glyph unicode="&#xff;" horiz-adv-x="927" d="M39 983h88l350 -893h4l353 893h81l-399 -989q-79 -195 -175.5 -290t-242.5 -126l-8 74q116 26 196 98.5t138 216.5l12 31zM287 1243q0 26 17.5 44t43.5 18t44 -18t18 -44t-18 -43.5t-44 -17.5t-43.5 17.5t-17.5 43.5zM573 1243q0 26 18 44t44 18t43.5 -18t17.5 -44 t-17.5 -43.5t-43.5 -17.5t-44 17.5t-18 43.5z" />
<glyph unicode="&#x178;" horiz-adv-x="1042" d="M33 1389h98l397 -711h4l398 711h90l-451 -781v-608h-82v600zM334 1550q0 26 17.5 44t43.5 18t44 -18t18 -44t-18 -43.5t-44 -17.5t-43.5 17.5t-17.5 43.5zM621 1550q0 26 17.5 44t43.5 18t43.5 -18t17.5 -44t-17.5 -43.5t-43.5 -17.5t-43.5 17.5t-17.5 43.5z" />
<glyph unicode="&#x2000;" horiz-adv-x="806" />
<glyph unicode="&#x2001;" horiz-adv-x="1612" />
<glyph unicode="&#x2002;" horiz-adv-x="806" />
<glyph unicode="&#x2003;" horiz-adv-x="1612" />
<glyph unicode="&#x2004;" horiz-adv-x="537" />
<glyph unicode="&#x2005;" horiz-adv-x="403" />
<glyph unicode="&#x2006;" horiz-adv-x="268" />
<glyph unicode="&#x2007;" horiz-adv-x="268" />
<glyph unicode="&#x2008;" horiz-adv-x="201" />
<glyph unicode="&#x2009;" horiz-adv-x="322" />
<glyph unicode="&#x200a;" horiz-adv-x="89" />
<glyph unicode="&#x2010;" horiz-adv-x="735" d="M160 494v61h415v-61h-415z" />
<glyph unicode="&#x2011;" horiz-adv-x="735" d="M160 494v61h415v-61h-415z" />
<glyph unicode="&#x2012;" horiz-adv-x="735" d="M160 494v61h415v-61h-415z" />
<glyph unicode="&#x2013;" horiz-adv-x="1344" d="M160 494v61h1024v-61h-1024z" />
<glyph unicode="&#x2014;" horiz-adv-x="2368" d="M160 494v61h2048v-61h-2048z" />
<glyph unicode="&#x2018;" horiz-adv-x="485" d="M131 1014q76 228 154 411l82 17q-77 -214 -123 -395q-8 -33 -45 -33h-68z" />
<glyph unicode="&#x2019;" horiz-adv-x="485" d="M119 1014q77 214 123 395q8 33 45 33h67q-81 -243 -153 -412z" />
<glyph unicode="&#x201c;" horiz-adv-x="684" d="M131 1014q76 228 154 411l82 17q-77 -214 -123 -395q-8 -33 -45 -33h-68zM330 1014q79 238 153 411l82 17q-77 -214 -123 -395q-8 -33 -45 -33h-67z" />
<glyph unicode="&#x201d;" horiz-adv-x="684" d="M119 1014q77 214 123 395q8 33 45 33h67q-81 -243 -153 -412zM317 1014q77 214 123 395q8 33 45 33h68q-77 -232 -154 -412z" />
<glyph unicode="&#x202f;" horiz-adv-x="322" />
<glyph unicode="&#x205f;" horiz-adv-x="403" />
<glyph unicode="&#xe000;" horiz-adv-x="983" d="M0 0v983h983v-983h-983z" />
</font>
</defs>
</svg>
